<svg xmlns="http://www.w3.org/2000/svg" 
version="1.1" xmlns:xlink="http://www.w3.org/1999/xlink" 
xmlns:svgjs="http://svgjs.dev/svgjs" 
width="2000" height="1500" 
viewBox="0 0 2000 1500">
<rect width="2000" height="1500" fill="#1b4571">
</rect>
<g transform="matrix(0.75,0,0,0.75,249.090909090909,282.7536437246963)">
<svg viewBox="0 0 396 247" data-background-color="#1b4571" preserveAspectRatio="xMidYMid meet" height="1247" width="2000" xmlns="http://www.w3.org/2000/svg" xmlns:xlink="http://www.w3.org/1999/xlink"><g id="tight-bounds" transform="matrix(1,0,0,1,0.2400000000000091,-0.09999999999999432)"><svg viewBox="0 0 395.52 247.2" height="247.2" width="395.52"><g><svg></svg></g><g><svg viewBox="0 0 395.52 247.2" height="247.2" width="395.52"><g transform="matrix(1,0,0,1,75.54432,93.53724098271155)"><svg viewBox="0 0 244.43135999999998 60.125518034576885" height="60.125518034576885" width="244.43135999999998"><g><svg viewBox="0 0 244.43135999999998 60.125518034576885" height="60.125518034576885" width="244.43135999999998"><g><svg viewBox="0 0 244.43135999999998 60.125518034576885" height="60.125518034576885" width="244.43135999999998"><g><svg viewBox="0 0 244.43135999999998 60.125518034576885" height="60.125518034576885" width="244.43135999999998"><g id="textblocktransform"><svg viewBox="0 0 244.43135999999998 60.125518034576885" height="60.125518034576885" width="244.43135999999998" id="textblock"><g><svg viewBox="0 0 244.43135999999998 60.125518034576885" height="60.125518034576885" width="244.43135999999998"><g transform="matrix(1,0,0,1,0,0)"><svg width="244.43135999999998" viewBox="4.15 -39.11 160.97 39.6" height="60.125518034576885" data-palette-color="#ffffff"><path d="M4.15 0L4.15-35.77 18.8-35.77Q23.51-35.77 27.14-34.61 30.76-33.45 33.23-31.29 35.69-29.13 36.96-26.05 38.23-22.97 38.23-19.14L38.23-19.14Q38.23-16.89 37.77-14.6 37.3-12.3 36.28-10.17 35.25-8.03 33.64-6.18 32.03-4.32 29.75-2.94 27.47-1.56 24.45-0.77 21.44 0.02 17.63 0.02L17.63 0.02 4.15 0ZM14.06-29.93L14.06-5.83 18.58-5.83Q21.02-5.83 22.8-6.77 24.58-7.71 25.74-9.39 26.9-11.06 27.47-13.37 28.03-15.67 28.03-18.38L28.03-18.38Q28.03-21.36 27.37-23.55 26.71-25.73 25.45-27.15 24.19-28.56 22.34-29.25 20.48-29.93 18.12-29.93L18.12-29.93 14.06-29.93ZM58.1-3.71L58.1-3.71Q57.32-3.05 56.38-2.32 55.44-1.59 54.33-0.96 53.22-0.34 51.98 0.07 50.73 0.49 49.36 0.49L49.36 0.49Q47.56 0.49 46.27-0.23 44.99-0.95 44.19-2.05 43.38-3.15 43-4.46 42.62-5.76 42.62-6.96L42.62-6.96Q42.62-8.84 43.52-10.42 44.41-12.01 46.23-13.17 48.04-14.33 50.78-14.98 53.51-15.63 57.18-15.63L57.18-15.63 57.71-15.63 57.71-16.89Q57.71-18.77 56.56-19.69 55.42-20.61 53.46-20.61L53.46-20.61Q52.56-20.61 51.57-20.39 50.58-20.17 49.58-19.78 48.58-19.38 47.6-18.87 46.63-18.36 45.75-17.77L45.75-17.77 45.31-18.02 43.72-23.68Q46.97-25.1 49.9-25.73 52.83-26.37 55.78-26.37L55.78-26.37Q58.13-26.37 60.24-25.94 62.35-25.51 63.96-24.52 65.57-23.54 66.53-21.88 67.48-20.21 67.48-17.77L67.48-17.77 67.48-8.15Q67.48-7.2 67.84-6.51 68.21-5.81 69.24-5.81L69.24-5.81Q69.58-5.81 69.83-5.83 70.09-5.86 70.46-6.01L70.46-6.01 70.46-2.05Q68.72-0.83 66.99-0.17 65.26 0.49 63.64 0.49L63.64 0.49Q61.74 0.49 60.35-0.5 58.96-1.49 58.1-3.71ZM57.71-6.93L57.71-12.6 57.08-12.6Q55.47-12.6 54.36-12.35 53.24-12.11 52.56-11.66 51.88-11.21 51.57-10.52 51.27-9.84 51.27-8.96L51.27-8.96Q51.27-8.08 51.52-7.48 51.78-6.88 52.21-6.51 52.63-6.13 53.18-5.97 53.73-5.81 54.32-5.81L54.32-5.81Q55.1-5.81 55.98-6.08 56.86-6.35 57.71-6.93L57.71-6.93ZM74.6 0L74.6-25.88 82.95-25.88 84.08-21.73Q84.91-22.41 85.92-23.23 86.93-24.05 88.11-24.74 89.28-25.44 90.62-25.9 91.96-26.37 93.45-26.37L93.45-26.37Q95.26-26.37 96.76-25.74 98.26-25.12 99.34-23.96 100.41-22.8 101.01-21.17 101.61-19.53 101.61-17.53L101.61-17.53 101.61 0 91.84 0 91.84-16.06Q91.84-17.04 91.57-17.8 91.3-18.55 90.83-19.06 90.35-19.56 89.73-19.81 89.11-20.07 88.42-20.07L88.42-20.07Q87.32-20.07 86.31-19.53 85.3-18.99 84.37-18.26L84.37-18.26 84.37 0 74.6 0ZM108.44 0L108.44-25.88 118.21-25.88 118.21 0 108.44 0ZM113.18-29.44L113.18-29.44Q111.93-29.44 110.93-29.8 109.93-30.15 109.22-30.77 108.51-31.4 108.13-32.23 107.76-33.06 107.76-34.01L107.76-34.01Q107.76-34.99 108.17-35.86 108.59-36.74 109.34-37.38 110.1-38.01 111.15-38.39 112.2-38.77 113.47-38.77L113.47-38.77Q114.71-38.77 115.72-38.42 116.72-38.06 117.42-37.44 118.13-36.82 118.51-35.99 118.89-35.16 118.89-34.2L118.89-34.2Q118.89-33.2 118.47-32.34 118.06-31.47 117.3-30.83 116.55-30.2 115.5-29.82 114.45-29.44 113.18-29.44ZM148.53-6.84L148.53-2.88Q147.06-1.86 145.62-1.2 144.18-0.54 142.8-0.17 141.42 0.2 140.09 0.34 138.76 0.49 137.51 0.49L137.51 0.49Q134.17 0.49 131.57-0.35 128.97-1.2 127.19-2.78 125.41-4.37 124.49-6.67 123.57-8.96 123.57-11.89L123.57-11.89Q123.57-15.33 124.78-18.02 125.99-20.7 128.02-22.56 130.04-24.41 132.7-25.39 135.37-26.37 138.3-26.37L138.3-26.37Q140.88-26.37 143.03-25.6 145.18-24.83 146.73-23.33 148.28-21.83 149.14-19.6 149.99-17.38 149.99-14.5L149.99-14.5Q149.99-13.4 149.89-12.65 149.79-11.89 149.7-11.47L149.7-11.47 133.58-11.47Q133.58-9.89 134.13-8.81 134.68-7.74 135.71-7.07 136.73-6.4 138.19-6.1 139.64-5.81 141.45-5.81L141.45-5.81Q142.93-5.81 144.81-6.03 146.69-6.25 148.53-6.84L148.53-6.84ZM133.58-14.5L141.2-14.5Q141.2-16.11 140.93-17.27 140.66-18.43 140.19-19.18 139.71-19.92 139.02-20.26 138.32-20.61 137.49-20.61L137.49-20.61Q135.66-20.61 134.62-19.08 133.58-17.55 133.58-14.5L133.58-14.5ZM155.36 0L155.36-39.11 165.12-39.11 165.12 0 155.36 0Z" opacity="1" transform="matrix(1,0,0,1,0,0)" fill="#ffffff" class="wordmark-text-0" data-fill-palette-color="primary" id="text-0"></path></svg></g></svg></g></svg></g></svg></g></svg></g></svg></g></svg></g><path d="M198.662 87.537L198.662 28.837 9.136 28.837 9.136 218.363 198.662 218.363 198.662 159.663 193.24 159.663 193.24 212.941 14.558 212.941 14.558 34.259 193.24 34.259 193.24 87.537Z" fill="#ffffff" stroke="transparent" data-fill-palette-color="primary"></path></svg></g><defs></defs></svg><rect width="395.52" height="247.2" fill="none" stroke="none" visibility="hidden"></rect></g></svg></g></svg>