<svg xmlns="http://www.w3.org/2000/svg" version="1.1" xmlns:xlink="http://www.w3.org/1999/xlink" xmlns:svgjs="http://svgjs.dev/svgjs" width="1000" height="625" viewBox="0 0 1000 625"><g transform="matrix(1,0,0,1,0,0)"><svg viewBox="0 0 576 360" data-background-color="#ffffff" preserveAspectRatio="xMidYMid meet" height="625" width="1000" xmlns="http://www.w3.org/2000/svg" xmlns:xlink="http://www.w3.org/1999/xlink"><g id="tight-bounds" transform="matrix(1,0,0,1,0,0)"><svg viewBox="0 0 576 360" height="360" width="576"><g><svg></svg></g><g><svg viewBox="0 0 576 360" height="360" width="576"><g><path transform="translate(288,180) scale(180,180)" d="M-0.866-0.5l0.866-0.5 0.866 0.5 0 1-0.866 0.5-0.866-0.5z" fill="#770017" fill-rule="nonzero" stroke="none" stroke-width="1" stroke-linecap="butt" stroke-linejoin="miter" stroke-miterlimit="10" stroke-dasharray="" stroke-dashoffset="0" font-family="none" font-weight="none" font-size="none" text-anchor="none" style="mix-blend-mode: normal" data-fill-palette-color="tertiary"></path></g><g transform="matrix(1,0,0,1,185.68986250588196,99)"><svg viewBox="0 0 204.62027498823608 162" height="162" width="204.62027498823608"><g><svg viewBox="0 0 230.4 182.4100764313109" height="162" width="204.62027498823608"><g transform="matrix(1,0,0,1,0,112.73674516387982)"><svg viewBox="0 0 230.4 69.67333126743108" height="69.67333126743108" width="230.4"><g id="textblocktransform"><svg viewBox="0 0 230.4 69.67333126743108" height="69.67333126743108" width="230.4" id="textblock"><g><svg viewBox="0 0 230.4 69.67333126743108" height="69.67333126743108" width="230.4"><g transform="matrix(1,0,0,1,0,0)"><svg width="230.4" viewBox="2 -34.85178493576 115.24 34.85178493576" height="69.67333126743108" data-palette-color="#ffffff"><path d="M11.2-0.05L2.25 0Q2 0 2-0.25L2-0.25 2.1-34.6Q2.1-34.8 2.3-34.8L2.3-34.8 11.65-34.85Q14.4-34.9 16.68-33.55 18.95-32.2 20.3-29.93 21.65-27.65 21.65-24.9L21.65-24.9 21.65-10.55Q21.65-7.65 20.25-5.28 18.85-2.9 16.5-1.5 14.15-0.1 11.2-0.05L11.2-0.05ZM8.15-28.8L8.1-6.15 11.2-6.15Q13.05-6.15 14.33-7.45 15.6-8.75 15.6-10.55L15.6-10.55 15.6-24.95Q15.6-26.55 14.43-27.73 13.25-28.9 11.65-28.85L11.65-28.85 8.15-28.8ZM22.9-0.25L22.9-0.25 29.1-34.6Q29.15-34.8 29.35-34.8L29.35-34.8 36.6-34.8Q36.8-34.8 36.85-34.6L36.85-34.6 42.8-0.25Q42.85 0 42.6 0L42.6 0 37.05 0Q36.85 0 36.8-0.25L36.8-0.25 36.25-3.9 29.45-3.9 28.9-0.25Q28.85 0 28.65 0L28.65 0 23.1 0Q22.9 0 22.9-0.25ZM32.7-23.3L30.45-9.25 35.25-9.25 33.2-23.3 32.9-25.15 32.7-23.3ZM51.4 0L46.4 0Q46 0 46-0.35L46-0.35 45.95-34.4Q45.95-34.8 46.35-34.8L46.35-34.8 50.85-34.8 59.3-15.1 59.05-34.4Q59.05-34.8 59.5-34.8L59.5-34.8 64.45-34.8Q64.75-34.8 64.75-34.4L64.75-34.4 64.8-0.3Q64.8 0 64.55 0L64.55 0 60.15 0 51.5-18.4 51.85-0.4Q51.85 0 51.4 0L51.4 0ZM75.04 0L69.39 0Q69.14 0 69.14-0.25L69.14-0.25 69.19-34.6Q69.19-34.8 69.39-34.8L69.39-34.8 74.99-34.8Q75.19-34.8 75.19-34.6L75.19-34.6 75.24-0.25Q75.24 0 75.04 0L75.04 0ZM95.99 0L79.84 0Q79.64 0 79.64-0.25L79.64-0.25 79.69-34.6Q79.69-34.8 79.89-34.8L79.89-34.8 95.94-34.8Q96.14-34.8 96.14-34.55L96.14-34.55 96.14-28.95Q96.14-28.75 95.94-28.75L95.94-28.75 85.69-28.75 85.69-20.95 95.94-20.95Q96.14-20.95 96.14-20.75L96.14-20.75 96.19-15.1Q96.19-14.9 95.99-14.9L95.99-14.9 85.69-14.9 85.69-6.15 95.99-6.15Q96.19-6.15 96.19-5.9L96.19-5.9 96.19-0.2Q96.19 0 95.99 0L95.99 0ZM116.99 0L100.84 0Q100.64 0 100.64-0.25L100.64-0.25 100.69-34.55Q100.69-34.8 100.94-34.8L100.94-34.8 106.49-34.8Q106.74-34.8 106.74-34.55L106.74-34.55 106.69-6.15 116.99-6.15Q117.24-6.15 117.24-5.9L117.24-5.9 117.24-0.25Q117.24 0 116.99 0L116.99 0Z" opacity="1" transform="matrix(1,0,0,1,0,0)" fill="#ffffff" class="wordmark-text-0" data-fill-palette-color="quaternary" id="text-0"></path></svg></g></svg></g></svg></g></svg></g><g transform="matrix(1,0,0,1,59.05572809420512,0)"><svg viewBox="0 0 112.28854381158976 96.28854381158976" height="96.28854381158976" width="112.28854381158976"><g><svg xmlns="http://www.w3.org/2000/svg" xmlns:xlink="http://www.w3.org/1999/xlink" version="1.1" x="8" y="0" viewBox="10 10 80 80" style="enable-background:new 0 0 100 100;" xml:space="preserve" height="96.28854381158976" width="96.28854381158976" class="icon-icon-0" data-fill-palette-color="quaternary" id="icon-0"><path d="M19.05 33.199h5.22v7.143c0 0.552 0.447 1 1 1H35.688c0.553 0 1-0.448 0.999-1v-7.143h5.263c0.394 0 0.751-0.231 0.912-0.591s0.097-0.78-0.165-1.074L31.247 18.684c-0.381-0.426-1.113-0.426-1.494 0L18.303 31.534c-0.262 0.294-0.326 0.715-0.165 1.074S18.656 33.199 19.05 33.199zM30.5 20.853l9.22 10.346H35.688c-0.553 0-1 0.448-1.001 1v7.143h-8.417v-7.143c0-0.552-0.447-1-1-1h-3.99L30.5 20.853z" fill="#ffffff" data-fill-palette-color="quaternary"></path><path d="M83.873 10H16.127C12.749 10 10 12.749 10 16.127v67.746C10 87.251 12.749 90 16.127 90h67.746C87.251 90 90 87.251 90 83.873V16.127C90 12.749 87.251 10 83.873 10zM88 16.127V49H75.659c-0.55 0-0.996 0.444-1 0.994-0.015 2.397-1.976 4.348-4.371 4.348s-4.357-1.951-4.372-4.348C65.912 49.444 65.466 49 64.916 49H51l0.001-13.024c3.042-0.481 5.375-3.122 5.375-6.297S54.042 23.864 51 23.382V12h32.873C86.148 12 88 13.852 88 16.127zM16.127 12H49l0.001 12.304c0 0.552 0.447 1 1 1 2.412 0 4.375 1.962 4.375 4.375s-1.963 4.375-4.376 4.375c-0.553 0-1 0.448-1 1V49H35.084c-0.55 0-0.996 0.444-1 0.994-0.015 2.397-1.977 4.348-4.372 4.348s-4.356-1.95-4.371-4.348C25.338 49.444 24.891 49 24.341 49H12V16.127C12 13.852 13.852 12 16.127 12zM12 83.873V51h11.425c0.496 3.023 3.133 5.342 6.287 5.342S35.503 54.023 36 51h13v12.958c-3.041 0.481-5.374 3.122-5.374 6.297S45.959 76.07 49 76.551V88H16.127C13.852 88 12 86.148 12 83.873zM83.873 88H51V75.63c0-0.552-0.447-1-1-1-2.412 0-4.374-1.963-4.374-4.375s1.962-4.375 4.374-4.375c0.553 0 1-0.448 1-1V51h13c0.497 3.023 3.134 5.342 6.288 5.342 3.153 0 5.79-2.319 6.287-5.342H88v32.873C88 86.148 86.148 88 83.873 88z" fill="#ffffff" data-fill-palette-color="quaternary"></path></svg></g></svg></g><g><rect width="46.16586558832316" height="6.2832129165748025" y="89.00533089501496" x="171.34427190579487" fill="#8f8d8b" data-fill-palette-color="accent"></rect><rect width="46.16586558832316" height="6.2832129165748025" y="89.00533089501496" x="12.889862505881965" fill="#8f8d8b" data-fill-palette-color="accent"></rect><rect width="46.16586558832316" height="6.2832129165748025" y="76.43890506186536" x="171.34427190579487" fill="#8f8d8b" data-fill-palette-color="accent"></rect><rect width="46.16586558832316" height="6.2832129165748025" y="76.43890506186536" x="12.889862505881965" fill="#8f8d8b" data-fill-palette-color="accent"></rect></g></svg></g></svg></g></svg></g><defs></defs></svg><rect width="576" height="360" fill="none" stroke="none" visibility="hidden"></rect></g></svg></g></svg>